<svg width="81" height="90" fill="none" xmlns="http://www.w3.org/2000/svg"><g filter="url(#filter0_f_1911_11806)"><circle cx="35.5" cy="45" r="20" fill="#55A042" fill-opacity="0.76"/></g><rect x="19.5" y="29" width="32" height="32" rx="16" fill="#55A042"/><path d="M34.7918 38.7816C34.0559 38.0456 33.0775 37.6403 32.0367 37.6403C30.996 37.6403 30.0175 38.0456 29.2816 38.7815C28.5456 39.5175 28.1404 40.4959 28.1404 41.5367C28.1404 42.5774 28.5456 43.5559 29.2815 44.2918C30.0411 45.0514 31.0391 45.4312 32.0367 45.4312C33.0345 45.4314 34.0322 45.0516 34.7919 44.2918C36.311 42.7726 36.311 40.3008 34.7918 38.7816Z" fill="white"/><path d="M36.3761 37.1973C35.217 36.0383 33.6759 35.3999 32.0367 35.3999C30.3975 35.3999 28.8565 36.0383 27.6974 37.1973C26.5382 38.3564 25.8999 39.8975 25.8999 41.5367C25.8999 43.1759 26.5383 44.717 27.6974 45.8761C28.8936 47.0723 30.4654 47.6705 32.0368 47.6706C33.6085 47.6708 35.1796 47.0726 36.3762 45.8761C38.7688 43.4833 38.7688 39.5901 36.3761 37.1973ZM32.0367 46.3195C30.8113 46.3195 29.586 45.853 28.6531 44.9203C27.7495 44.0166 27.2517 42.8149 27.2517 41.5368C27.2517 40.2587 27.7494 39.0571 28.6532 38.1533C29.557 37.2494 30.7586 36.7517 32.0367 36.7517C33.3148 36.7517 34.5164 37.2494 35.4202 38.1532C37.2858 40.0188 37.2858 43.0545 35.4203 44.9202C34.4873 45.853 33.262 46.3195 32.0367 46.3195Z" fill="white"/><path d="M44.6194 51.7987L38.0275 45.207C37.7446 45.6688 37.4039 46.1049 37.0044 46.5044C36.605 46.9038 36.1688 47.2446 35.7069 47.5275L42.2987 54.1192C42.6086 54.4292 43.0207 54.5999 43.459 54.5999C43.8973 54.5999 44.3093 54.4292 44.6193 54.1193C44.9292 53.8093 45.0999 53.3972 45.0999 52.959C45.0999 52.5207 44.9292 52.1086 44.6194 51.7987Z" fill="white"/><defs><filter id="filter0_f_1911_11806" x="-9.5" y="0" width="90" height="90" filterUnits="userSpaceOnUse" color-interpolation-filters="sRGB"><feFlood flood-opacity="0" result="BackgroundImageFix"/><feBlend mode="normal" in="SourceGraphic" in2="BackgroundImageFix" result="shape"/><feGaussianBlur stdDeviation="12.5" result="effect1_foregroundBlur_1911_11806"/></filter></defs></svg>