<svg width="134" height="40" fill="none" xmlns="http://www.w3.org/2000/svg"><path d="M124.048 0H8.34782C8.04114 0 7.7366 0.0107092 7.42992 0.0107092C6.77796 0.0321328 6.11527 0.0728389 5.45473 0.192811C4.79204 0.302071 4.18297 0.49917 3.57819 0.803385C2.98842 1.10974 2.44798 1.50608 1.97831 1.97526C1.49792 2.44443 1.11189 2.98216 0.805207 3.57345C0.498527 4.17332 0.305511 4.79674 0.193991 5.45873C0.0738922 6.11001 0.0310002 6.772 0.0116987 7.43185C0.0116987 7.72749 0.000976562 8.0317 0.000976562 8.33806V31.6641C0.000976562 31.9704 0.0116987 32.2747 0.0116987 32.581C0.0331448 33.243 0.0738922 33.9028 0.193991 34.5541C0.303366 35.2161 0.500672 35.8353 0.805207 36.4394C1.11189 37.0178 1.49792 37.5684 1.97831 38.0269C2.44798 38.4961 2.98628 38.8924 3.57819 39.188C4.17868 39.5051 4.79204 39.6979 5.45473 39.8179C6.11742 39.9272 6.77796 39.97 7.42992 39.9893C7.7366 39.9893 8.04114 40 8.34782 40H125.116C125.412 40 125.727 39.9893 126.023 39.9893C126.686 39.9679 127.346 39.9272 127.998 39.8179C128.661 39.6979 129.281 39.5008 129.885 39.188C130.475 38.8924 131.016 38.4961 131.485 38.0269C131.955 37.5684 132.352 37.02 132.658 36.4394C132.965 35.8395 133.158 35.2161 133.27 34.5541C133.39 33.9028 133.432 33.2409 133.452 32.581V31.6641C133.463 31.3085 133.463 30.9507 133.463 30.5865V9.41781C133.463 9.05361 133.463 8.6937 133.452 8.34021V7.43398C133.43 6.772 133.39 6.11215 133.27 5.46087C133.16 4.79888 132.963 4.17974 132.658 3.5756C132.352 2.98645 131.955 2.44657 131.485 1.97739C131.016 1.50822 130.477 1.11188 129.885 0.805523C129.285 0.499165 128.661 0.306358 127.998 0.194956C127.346 0.0749834 126.683 0.0321349 126.023 0.0128536C125.727 0.0128536 125.412 0.00213791 125.116 0.00213791H124.048V0Z" fill="#2C2E36"/><path d="M8.34785 39.1303C8.04117 39.1303 7.75808 39.1303 7.4514 39.1195C6.90023 39.1088 6.24827 39.0788 5.60703 38.9567C5.00654 38.8539 4.46609 38.6718 3.9664 38.4168C3.45598 38.1619 2.98631 37.817 2.58956 37.4185C2.18208 37.0115 1.84538 36.553 1.58159 36.0345C1.32638 35.5354 1.15481 35.0084 1.04115 34.3956C0.921048 33.7337 0.888878 33.0631 0.878155 32.5532C0.867432 32.339 0.867432 31.647 0.867432 31.647V8.33168C0.867432 8.33168 0.878155 7.65041 0.878155 7.44689C0.888878 6.92629 0.918904 6.25574 1.04115 5.60446C1.15052 4.99389 1.32638 4.46473 1.58159 3.95484C1.84752 3.44496 2.18208 2.97579 2.58098 2.57945C2.98846 2.1724 3.45598 1.82534 3.9664 1.57254C4.47682 1.30689 5.01512 1.1355 5.60703 1.03267C6.26972 0.912696 6.94098 0.880558 7.46212 0.869847L8.34785 0.859131H125.103L126.01 0.869847C126.52 0.880558 127.194 0.910554 127.844 1.03267C128.444 1.1355 128.985 1.30903 129.495 1.57254C130.005 1.82748 130.475 2.1724 130.872 2.57945C131.279 2.97579 131.616 3.44496 131.888 3.96341C132.144 4.46258 132.315 5.00031 132.41 5.59375C132.53 6.21289 132.562 6.8556 132.581 7.4576C132.592 7.73397 132.592 8.03604 132.592 8.33168V31.647C132.592 31.9641 132.592 32.2576 132.581 32.5639C132.56 33.1423 132.53 33.7872 132.418 34.3871C132.315 34.9976 132.141 35.5268 131.878 36.0367C131.612 36.5573 131.277 37.0157 130.878 37.4121C130.471 37.8191 130.003 38.1555 129.493 38.419C128.982 38.6846 128.455 38.8453 127.842 38.9589C127.211 39.0788 126.559 39.111 125.997 39.1217C125.712 39.1324 125.407 39.1324 125.111 39.1324H8.34785V39.1367V39.1303Z" fill="white"/><path d="M45.4608 25.3698L43.239 19.3754L41.0279 25.3698H45.4587H45.4608ZM37.7188 29.8173L42.3232 17.7665H44.1676L48.7721 29.8173H47.0714L45.9712 26.7237H40.5389L39.4387 29.8173H37.7188ZM51.8989 28.4633V33.2558H50.4127V20.7787H51.8989V22.1434C52.2121 21.6056 52.6067 21.2093 53.0828 20.9522C53.5653 20.6866 54.1336 20.5559 54.7942 20.5559C55.8944 20.5559 56.7865 20.9929 57.4728 21.8692C58.1655 22.7368 58.5108 23.8851 58.5108 25.3098C58.5108 26.7345 58.1655 27.872 57.4728 28.7504C56.7865 29.6181 55.8944 30.053 54.7942 30.053C54.1358 30.053 53.5675 29.9266 53.0828 29.6673C52.6067 29.4017 52.2142 28.9989 51.8989 28.4655V28.4633ZM56.9602 25.3076C56.9602 24.215 56.7329 23.3581 56.2782 22.7347C55.8365 22.1112 55.2231 21.7984 54.4339 21.7984C53.6447 21.7984 53.0227 22.1112 52.5681 22.7347C52.1198 23.3581 51.8947 24.215 51.8947 25.3076C51.8947 26.4002 52.1198 27.2572 52.5681 27.8806C53.0227 28.4976 53.6447 28.8083 54.4339 28.8083C55.2231 28.8083 55.8365 28.4976 56.2782 27.8806C56.7329 27.2572 56.9602 26.4002 56.9602 25.3076ZM62.4118 28.4633V33.2558H60.9149V20.7787H62.4118V22.1434C62.725 21.6056 63.1153 21.2093 63.5849 20.9522C64.0675 20.6866 64.6401 20.5559 65.3049 20.5559C66.3987 20.5559 67.2887 20.9929 67.975 21.8692C68.6677 22.7368 69.013 23.8851 69.013 25.3098C69.013 26.7345 68.6677 27.872 67.975 28.7504C67.2887 29.6181 66.3987 30.053 65.3049 30.053C64.6401 30.053 64.0675 29.9266 63.5849 29.6673C63.1153 29.4017 62.7228 28.9989 62.4118 28.4655V28.4633ZM67.4646 25.3076C67.4646 24.215 67.2372 23.3581 66.7826 22.7347C66.3408 22.1112 65.7274 21.7984 64.9382 21.7984C64.149 21.7984 63.527 22.1112 63.0724 22.7347C62.6306 23.3581 62.4097 24.215 62.4097 25.3076C62.4097 26.4002 62.6306 27.2572 63.0724 27.8806C63.527 28.4976 64.149 28.8083 64.9382 28.8083C65.7274 28.8083 66.3408 28.4976 66.7826 27.8806C67.2372 27.2572 67.4646 26.4002 67.4646 25.3076ZM79.7103 28.097V24.862H77.051V23.5188H81.3295V28.699C80.699 29.1467 80.002 29.4852 79.2406 29.7145C78.4857 29.9394 77.6794 30.0487 76.8172 30.0487C74.9278 30.0487 73.4523 29.4981 72.3865 28.3991C71.327 27.3 70.7973 25.7682 70.7973 23.7994C70.7973 21.8306 71.3292 20.2988 72.3865 19.1998C73.4523 18.0943 74.9321 17.5394 76.8172 17.5394C77.6043 17.5394 78.3485 17.6401 79.0476 17.8351C79.7618 18.0236 80.4159 18.3107 81.0142 18.6899V20.4295C80.4116 19.9132 79.7704 19.5275 79.0905 19.2683C78.4107 19.0091 77.6965 18.8827 76.9523 18.8827C75.479 18.8827 74.3702 19.2919 73.6217 20.1124C72.8883 20.9394 72.5216 22.1691 72.5216 23.7951C72.5216 25.4212 72.8861 26.6466 73.6217 27.4671C74.3702 28.2877 75.4811 28.6969 76.9523 28.6969C77.5292 28.6969 78.0461 28.6476 78.5007 28.5555C78.949 28.4591 79.3522 28.3048 79.7103 28.0948V28.097ZM89.7857 25.2648H88.3102C87.1071 25.2648 86.275 25.4019 85.8139 25.6825C85.3528 25.9546 85.1212 26.4238 85.1212 27.0879C85.1212 27.6192 85.2927 28.0391 85.6423 28.3498C85.9876 28.6561 86.4594 28.8083 87.0599 28.8083C87.8877 28.8083 88.5504 28.5148 89.0458 27.9342C89.5434 27.3514 89.79 26.5738 89.79 25.6011V25.2669H89.7857V25.2648ZM91.2719 24.6542V29.8152H89.7857V28.4398C89.4469 28.9904 89.0244 29.3974 88.5225 29.6631C88.0121 29.9223 87.3923 30.0487 86.6567 30.0487C85.7324 30.0487 84.9946 29.7895 84.4456 29.2731C83.9009 28.7504 83.6328 28.0499 83.6328 27.1758C83.6328 26.1667 83.9717 25.3976 84.6494 24.8749C85.3356 24.3586 86.3522 24.0994 87.7054 24.0994H89.7857V23.958C89.7857 23.2724 89.5605 22.7411 89.1123 22.3705C88.6641 21.9977 88.0336 21.8134 87.2186 21.8134C86.7018 21.8134 86.2021 21.8756 85.7109 21.9956C85.222 22.1155 84.748 22.3062 84.2934 22.5526V21.1772C84.8381 20.9672 85.3657 20.813 85.8825 20.708C86.3929 20.5987 86.8862 20.5452 87.3687 20.5452C88.6791 20.5452 89.6592 20.8837 90.3026 21.5607C90.9481 22.2462 91.2676 23.2724 91.2676 24.6499L91.2719 24.6542ZM94.3366 29.8152V17.2588H95.8228V29.8152H94.3366ZM98.9325 29.8152V17.2588H100.419V29.8152H98.9325ZM111.225 24.9199V25.6526H104.391C104.453 26.668 104.755 27.45 105.308 27.992C105.864 28.5233 106.636 28.7847 107.622 28.7847C108.191 28.7847 108.744 28.7161 109.274 28.5812C109.819 28.4398 110.35 28.2298 110.874 27.9513V29.3567C110.342 29.5816 109.797 29.753 109.233 29.8773C108.678 29.9908 108.109 30.0487 107.532 30.0487C106.091 30.0487 104.95 29.6288 104.097 28.7868C103.256 27.9534 102.834 26.8201 102.834 25.3869C102.834 23.9537 103.235 22.7282 104.037 21.867C104.837 20.9929 105.92 20.5537 107.275 20.5537C108.493 20.5537 109.452 20.9458 110.157 21.7363C110.867 22.514 111.223 23.5766 111.223 24.9199H111.225ZM104.431 24.4935H109.739C109.726 23.6816 109.495 23.0303 109.047 22.5397C108.605 22.0577 108.019 21.8156 107.284 21.8156C106.456 21.8156 105.791 22.0491 105.287 22.5183C104.789 22.9875 104.508 23.6452 104.431 24.4914V24.4935ZM118.845 20.6352L118.856 22.1605C118.687 22.0641 118.504 21.9955 118.305 21.9463C118.105 21.897 117.895 21.8734 117.664 21.8734C116.823 21.8734 116.173 22.1498 115.718 22.6961C115.27 23.2403 115.045 24.0222 115.045 25.0463V29.8109H113.559V20.7744H115.045V22.1798C115.358 21.6292 115.766 21.2222 116.27 20.9565C116.774 20.6844 117.38 20.5495 118.095 20.5495C118.198 20.5495 118.311 20.5602 118.44 20.5794C118.56 20.5859 118.699 20.603 118.847 20.6309L118.845 20.6352ZM128.157 20.7766L124.185 30.6485C123.765 31.7261 123.353 32.4331 122.954 32.7631C122.553 33.0908 122.019 33.2515 121.354 33.2515H120.162V32.0111H121.037C121.445 32.0111 121.764 31.9104 121.996 31.7154C122.221 31.5269 122.467 31.0684 122.74 30.34L123.017 29.6673L119.347 20.7723H120.926L123.756 27.8335L126.577 20.7723H128.155L128.157 20.7766Z" fill="#010202"/><path d="M37.626 13.5333V7.31617H41.5571V8.01887H38.4602V9.8613H41.4262V10.5747H38.4602V12.8242H41.6407V13.5376H37.626V13.5333ZM44.6582 10.2169L42.7237 7.31617H43.6309L45.1793 9.62778L46.7277 7.31617H47.6349L45.6383 10.2983L47.7657 13.5333H46.8585L45.1171 10.8875L43.3457 13.5333H42.4385L44.6603 10.2169H44.6582ZM50.7682 8.00816H49.7087V10.3412H50.7682C51.1606 10.3412 51.4673 10.2405 51.6861 10.0455C51.8962 9.84201 52.0035 9.54851 52.0035 9.17146C52.0035 8.7944 51.8962 8.52018 51.6861 8.31666C51.4695 8.11313 51.1628 8.01029 50.7682 8.01029V8.00816ZM48.8745 13.5333V7.31617H50.7682C51.4673 7.31617 51.9949 7.47042 52.3573 7.78535C52.7091 8.1067 52.8892 8.56302 52.8892 9.16931C52.8892 9.7756 52.7133 10.2512 52.3573 10.564C51.9992 10.8768 51.4673 11.0332 50.7682 11.0332H49.7087V13.5376H48.8745V13.5333ZM54.0194 13.5333V7.31617H54.8644V12.822H57.899V13.5354H54.0194V13.5333ZM61.0066 7.88818C60.3954 7.88818 59.9064 8.11527 59.5418 8.56945C59.1901 9.02363 59.0099 9.64491 59.0099 10.4333C59.0099 11.2217 59.1858 11.8344 59.5418 12.2972C59.9064 12.7513 60.3975 12.9784 61.0066 12.9784C61.6156 12.9784 62.1003 12.7513 62.452 12.2972C62.8102 11.8366 62.9925 11.2153 62.9925 10.4333C62.9925 9.65134 62.8123 9.02363 62.452 8.56945C62.1003 8.11099 61.6178 7.88818 61.0066 7.88818ZM61.0066 7.20691C61.8751 7.20691 62.5721 7.50042 63.0954 8.081C63.6187 8.66372 63.8782 9.44782 63.8782 10.4312C63.8782 11.4145 63.6166 12.1986 63.0954 12.7813C62.5721 13.3641 61.8751 13.6554 61.0066 13.6554C60.138 13.6554 59.4281 13.3619 58.8963 12.7813C58.373 12.1986 58.1135 11.4145 58.1135 10.4312C58.1135 9.44782 58.3751 8.66372 58.8963 8.081C59.4281 7.49613 60.1316 7.20691 61.0066 7.20691ZM68.1481 10.6133C68.3304 10.6754 68.5063 10.8061 68.68 11.0096C68.8494 11.2067 69.021 11.4809 69.2011 11.8323L70.0568 13.5312H69.1497L68.3562 11.933C68.146 11.5195 67.9465 11.2431 67.7557 11.1103C67.5584 10.9753 67.2946 10.9068 66.9622 10.9068H66.0443V13.5312H65.1993V7.31617H67.1037C67.8179 7.31617 68.3476 7.46399 68.7036 7.76392C69.0489 8.05743 69.2247 8.50518 69.2247 9.10718C69.2247 9.49923 69.1325 9.82702 68.9481 10.0862C68.7594 10.3412 68.4956 10.5211 68.1481 10.6133ZM67.0994 8.00816H66.04V10.2169H67.0994C67.5069 10.2169 67.8136 10.1205 68.0173 9.93199C68.2275 9.74346 68.3347 9.4671 68.3347 9.10933C68.3347 8.75155 68.2275 8.46876 68.0173 8.28666C67.8136 8.10456 67.5069 8.01029 67.0994 8.01029V8.00816ZM71.1334 13.5333V7.31617H75.0645V8.01887H71.9784V9.8613H74.9444V10.5747H71.9784V12.8242H75.1482V13.5376H71.1334V13.5333ZM79.2401 13.5333V7.31617H80.0851V13.5333H79.2401ZM80.9022 8.01887V7.31617H86.1672V8.01887H83.9561V13.5333H83.1111V8.01887H80.9H80.9022ZM92.2193 7.88818C91.6081 7.88818 91.1234 8.11527 90.7631 8.56945C90.405 9.02363 90.2227 9.64491 90.2227 10.4333C90.2227 11.2217 90.4028 11.8344 90.7631 12.2972C91.1213 12.7513 91.6081 12.9784 92.2193 12.9784C92.8305 12.9784 93.3152 12.7513 93.6755 12.2972C94.0272 11.8366 94.2074 11.2153 94.2074 10.4333C94.2074 9.65134 94.0315 9.02363 93.6755 8.56945C93.3173 8.11099 92.8305 7.88818 92.2193 7.88818ZM92.2193 7.20691C93.0943 7.20691 93.7956 7.50042 94.3189 8.081C94.8422 8.66158 95.1017 9.44782 95.1017 10.4312C95.1017 11.4145 94.84 12.1986 94.3189 12.7813C93.7977 13.3641 93.0943 13.6554 92.2193 13.6554C91.3443 13.6554 90.643 13.3619 90.1197 12.7813C89.5964 12.1986 89.3369 11.4145 89.3369 10.4312C89.3369 9.44782 89.5986 8.66372 90.1197 8.081C90.643 7.49613 91.3443 7.20691 92.2193 7.20691ZM96.4163 13.5354V7.31832H97.5465L100.309 12.52V7.31832H101.132V13.5354H99.9914L97.2291 8.33379V13.5354H96.4163Z" fill="#010202"/><path d="M26.9691 7.33765H15.8857C10.6571 7.33765 8.74414 9.24006 8.74414 14.461V25.5327C8.74414 30.7558 10.6571 32.6668 15.8857 32.6668H26.9691C32.1869 32.6668 34.0999 30.7558 34.0999 25.5327V14.461C34.0999 9.23791 32.1955 7.33765 26.9691 7.33765Z" fill="#010202"/><path fill-rule="evenodd" clip-rule="evenodd" d="M19.5666 22.6213L19.2599 23.3026H18.578L20.0342 19.9947H20.6239L22.0801 23.3026H21.3767L21.0807 22.6213H19.5709H19.5666ZM19.809 22.0214H20.8255L20.3151 20.8388L19.809 22.0214ZM30.6092 19.9969H31.2827V23.3047H30.6092V19.9969ZM27.9714 22.7048H29.8157V23.3047H27.3087V19.9969H29.7428V20.6075H27.9714V21.2802H29.1959V21.8907H27.9714V22.707V22.7048ZM26.0648 19.9969H26.7682L25.6166 23.3133H25.0483L24.2934 21.1366L23.5385 23.3133H22.9873L21.8249 19.9969H22.5498L23.2832 22.2764L24.0274 19.9969H24.5786L25.3335 22.2764L26.0648 19.9969ZM17.5614 19.9969H18.2348V21.8715C18.2348 22.8184 17.7137 23.3668 16.7958 23.3668C15.8779 23.3668 15.3782 22.8269 15.3782 21.8929V20.0012H16.0516V21.8757C16.0516 22.4328 16.3175 22.7305 16.8065 22.7305C17.2955 22.7305 17.5614 22.4349 17.5614 21.8972V19.999V19.9969ZM13.7719 19.9969H14.4453V23.3133H13.7719V21.9593H12.2535V23.3133H11.5801V19.9969H12.2535V21.3294H13.7719V19.9969ZM21.4303 15.7829C19.0948 15.7829 17.2118 13.8912 17.2118 11.5688H17.8016C17.8016 13.5634 19.4337 15.183 21.4303 15.183C23.4269 15.183 25.059 13.5634 25.059 11.5688H25.6488C25.6488 13.8869 23.7551 15.7829 21.4303 15.7829Z" fill="white"/></svg>