<svg width="135" height="40" fill="none" xmlns="http://www.w3.org/2000/svg"><path d="M129.999 40H5.00284C2.25287 40 0.00292969 37.75 0.00292969 35.0001V5.00064C0.00292969 2.25067 2.25287 0.000732422 5.00284 0.000732422H129.999C132.749 0.000732422 134.999 2.25067 134.999 5.00064V35.0001C134.999 37.75 132.749 40 129.999 40Z" fill="#100F0D"/><path d="M129.999 0.000732422H5.00284C2.25287 0.000732422 0.00292969 2.25067 0.00292969 5.00064V35.0001C0.00292969 37.75 2.25287 40 5.00284 40H129.999C132.749 40 134.999 37.75 134.999 35.0001V5.00064C134.999 2.25067 132.749 0.000732422 129.999 0.000732422ZM129.999 0.800312C132.315 0.800312 134.199 2.6847 134.199 5.00064V35.0001C134.199 37.316 132.315 39.2004 129.999 39.2004H5.00284C2.6869 39.2004 0.803335 37.316 0.803335 35.0001V5.00064C0.803335 2.6847 2.6869 0.800312 5.00284 0.800312H129.999Z" fill="#A2A2A1"/><path d="M106.936 30.0002H108.802V17.4983H106.936V30.0002ZM123.743 22.0021L121.604 27.422H121.54L119.32 22.0021H117.31L120.64 29.5772L118.741 33.7911H120.687L125.818 22.0025L123.743 22.0021ZM113.16 28.5801C112.55 28.5801 111.697 28.2742 111.697 27.5184C111.697 26.5535 112.759 26.1836 113.675 26.1836C114.495 26.1836 114.882 26.3602 115.38 26.6016C115.235 27.7598 114.238 28.5801 113.16 28.5801ZM113.386 21.7287C112.035 21.7287 110.636 22.324 110.057 23.6428L111.713 24.3341C112.067 23.6428 112.726 23.4178 113.418 23.4178C114.383 23.4178 115.364 23.9963 115.38 25.0259V25.1544C115.042 24.9614 114.318 24.6721 113.434 24.6721C111.648 24.6721 109.831 25.6528 109.831 27.4864C109.831 29.159 111.295 30.2367 112.935 30.2367C114.189 30.2367 114.882 29.6738 115.315 29.0141H115.38V29.9797H117.182V25.1864C117.182 22.9669 115.524 21.7287 113.386 21.7287ZM101.854 23.524H99.2003V19.239H101.854C103.249 19.239 104.041 20.3937 104.041 21.3814C104.041 22.3502 103.249 23.524 101.854 23.524ZM101.806 17.4986H97.3352V30.0005H99.2004V25.2643H101.806C103.874 25.2643 105.907 23.7674 105.907 21.3819C105.907 18.9968 103.874 17.4986 101.806 17.4986ZM77.4259 28.5822C76.1368 28.5822 75.0579 27.5025 75.0579 26.0209C75.0579 24.5221 76.1368 23.4272 77.4259 23.4272C78.6985 23.4272 79.6973 24.5222 79.6973 26.0209C79.6973 27.5025 78.6985 28.5822 77.4259 28.5822ZM79.5684 22.7019H79.5039C79.0852 22.2027 78.2793 21.7515 77.2649 21.7515C75.138 21.7515 73.1888 23.6206 73.1888 26.0209C73.1888 28.4049 75.138 30.2576 77.2649 30.2576C78.2793 30.2576 79.0852 29.8064 79.5039 29.2912H79.5684V29.9029C79.5684 31.5306 78.6985 32.4001 77.2969 32.4001C76.1536 32.4001 75.4446 31.5786 75.1544 30.886L73.5276 31.5625C73.9944 32.6898 75.2345 34.0758 77.297 34.0758C79.4884 34.0758 81.341 32.7867 81.341 29.645V22.0092H79.5685L79.5684 22.7019ZM82.6301 29.9998H84.498V17.498H82.6301V29.9998ZM87.2531 25.8757C87.205 24.2323 88.5265 23.3948 89.4765 23.3948C90.2179 23.3948 90.8455 23.7655 91.0558 24.2968L87.2531 25.8757ZM93.0526 24.4577C92.6983 23.5078 91.619 21.7515 89.412 21.7515C87.2206 21.7515 85.4004 23.4753 85.4004 26.0046C85.4004 28.3889 87.205 30.2576 89.621 30.2576C91.5702 30.2576 92.6984 29.0659 93.1658 28.3729L91.7158 27.4061C91.2324 28.1151 90.5722 28.5823 89.621 28.5823C88.6711 28.5823 87.9941 28.1472 87.5598 27.2933L93.2459 24.9414L93.0526 24.4577ZM47.7456 23.0566V24.8608H52.063C51.9341 25.8757 51.5958 26.6167 51.0801 27.1323C50.4517 27.7604 49.4689 28.4534 47.7455 28.4534C45.0872 28.4534 43.0092 26.3108 43.0092 23.6527C43.0092 20.9945 45.0872 18.8517 47.7455 18.8517C49.1793 18.8517 50.2263 19.4156 50.9996 20.1406L52.2727 18.8676C51.193 17.8367 49.7594 17.0474 47.7455 17.0474C44.1041 17.0474 41.0432 20.0117 41.0432 23.6527C41.0432 27.2933 44.1041 30.2576 47.7455 30.2576C49.7106 30.2576 51.193 29.6132 52.3528 28.405C53.545 27.2128 53.9156 25.5374 53.9156 24.184C53.9156 23.7656 53.8831 23.3789 53.8187 23.0566H47.7456ZM58.8246 28.5822C57.5355 28.5822 56.4239 27.5189 56.4239 26.0046C56.4239 24.4741 57.5355 23.4273 58.8246 23.4273C60.1132 23.4273 61.2249 24.4741 61.2249 26.0046C61.2249 27.5189 60.1132 28.5822 58.8246 28.5822ZM58.8246 21.7515C56.4719 21.7515 54.5551 23.5397 54.5551 26.0046C54.5551 28.4534 56.4719 30.2576 58.8246 30.2576C61.1765 30.2576 63.0937 28.4534 63.0937 26.0046C63.0937 23.5397 61.1765 21.7515 58.8246 21.7515ZM68.1374 28.5822C66.8492 28.5822 65.7372 27.5189 65.7372 26.0046C65.7372 24.4741 66.8493 23.4273 68.1374 23.4273C69.4265 23.4273 70.5378 24.4741 70.5378 26.0046C70.5378 27.5189 69.4265 28.5822 68.1374 28.5822ZM68.1374 21.7515C65.7856 21.7515 63.8688 23.5397 63.8688 26.0046C63.8688 28.4534 65.7856 30.2576 68.1374 30.2576C70.4902 30.2576 72.407 28.4534 72.407 26.0046C72.407 23.5397 70.4902 21.7515 68.1374 21.7515Z" fill="white"/><path d="M20.7171 19.4243L10.0715 30.7239C10.0719 30.7262 10.0727 30.7282 10.0731 30.7306C10.3996 31.9576 11.5203 32.861 12.8504 32.861C13.3821 32.861 13.8813 32.7173 14.3094 32.4649L14.3434 32.445L26.3269 25.53L20.7171 19.4243Z" fill="#EB3131"/><path d="M31.4883 17.5006L31.4781 17.4937L26.3044 14.4944L20.4756 19.6811L26.3246 25.5294L31.471 22.56C32.3733 22.0729 32.9858 21.1217 32.9858 20.0248C32.9858 18.9358 32.3816 17.9893 31.4883 17.5006Z" fill="#F6B60B"/><path d="M10.0703 9.27759C10.0063 9.51358 9.97266 9.76078 9.97266 10.0175V29.9848C9.97266 30.2411 10.0059 30.4891 10.0707 30.7243L21.0838 19.7134L10.0703 9.27759Z" fill="#5778C5"/><path d="M20.7954 20.0011L26.3059 14.4922L14.3358 7.55211C13.9007 7.29151 13.3929 7.14111 12.8496 7.14111C11.5195 7.14111 10.3973 8.04622 10.0707 9.27465C10.0703 9.27585 10.0703 9.27668 10.0703 9.27773L20.7954 20.0011Z" fill="#3BAD49"/><path d="M47.3955 9.78163H44.4783V10.5035H46.6643C46.6049 11.0926 46.3705 11.5551 45.9752 11.891C45.5799 12.227 45.0752 12.3957 44.4784 12.3957C43.8237 12.3957 43.269 12.1676 42.8144 11.7145C42.369 11.252 42.1425 10.6801 42.1425 9.99109C42.1425 9.30211 42.369 8.73019 42.8144 8.26773C43.269 7.81464 43.8237 7.58805 44.4784 7.58805C44.8144 7.58805 45.1346 7.64585 45.4283 7.77245C45.7221 7.89894 45.958 8.07554 46.1424 8.30214L46.6971 7.74745C46.4455 7.46146 46.1268 7.24275 45.7314 7.08336C45.3361 6.92397 44.9236 6.84747 44.4783 6.84747C43.6049 6.84747 42.8643 7.15056 42.2596 7.75527C41.6549 8.36146 41.3518 9.10835 41.3518 9.99111C41.3518 10.8739 41.6549 11.6224 42.2596 12.2271C42.8643 12.8317 43.6049 13.1349 44.4783 13.1349C45.3955 13.1349 46.1267 12.8411 46.6892 12.2442C47.1845 11.7474 47.4376 11.0755 47.4376 10.2349C47.4376 10.0927 47.4205 9.94102 47.3955 9.78163ZM48.5256 6.98171V13.0004H52.0395V12.2613H49.299V10.352H51.7709V9.63016H49.299V7.72237H52.0395V6.98169L48.5256 6.98171ZM56.9669 7.7224V6.98171H52.831V7.7224H54.5123V13.0004H55.2857V7.7224H56.9669ZM60.7113 6.98171H59.9379V13.0004H60.7113V6.98171ZM65.8163 7.7224V6.98171H61.6805V7.7224H63.3616V13.0004H64.135V7.7224H65.8163ZM73.6208 7.76459C73.0239 7.15051 72.2927 6.84741 71.4193 6.84741C70.5443 6.84741 69.8131 7.1505 69.2162 7.75522C68.6193 8.35211 68.3256 9.1005 68.3256 9.99106C68.3256 10.8816 68.6193 11.6301 69.2162 12.227C69.8131 12.8316 70.5443 13.1349 71.4193 13.1349C72.2848 13.1349 73.0239 12.8317 73.6208 12.227C74.2177 11.6302 74.5114 10.8817 74.5114 9.99106C74.5114 9.1083 74.2177 8.36137 73.6208 7.76459ZM69.7709 8.26768C70.2162 7.81459 70.7631 7.588 71.4193 7.588C72.0739 7.588 72.6208 7.8146 73.0583 8.26768C73.5036 8.71297 73.7223 9.29414 73.7223 9.99104C73.7223 10.6895 73.5036 11.2691 73.0583 11.7145C72.6208 12.1676 72.0739 12.3957 71.4193 12.3957C70.7631 12.3957 70.2162 12.1676 69.7709 11.7145C69.3349 11.2598 69.1162 10.6895 69.1162 9.99104C69.1162 9.29415 69.3349 8.72233 69.7709 8.26768ZM76.3489 9.25206L76.3161 8.09106H76.3489L79.4082 13.0004H80.216V6.98165H79.4426V10.5034L79.4754 11.6645H79.4426L76.5176 6.98165H75.5755V13.0004H76.3489V9.25206Z" fill="white" stroke="white" stroke-width="0.26666" stroke-miterlimit="10"/></svg>