<svg width="118" height="55" fill="none" xmlns="http://www.w3.org/2000/svg"><g clip-path="url(#clip0_1610_18498)"><path d="M62.335 21.6024C62.335 9.7012 52.6345 0 40.7415 0C28.8219 0 19.1348 9.7012 19.1348 21.6024V33.053C19.1348 33.1723 19.1348 33.2783 19.1348 33.3976C19.1348 45.3651 28.7688 55 40.7282 55C52.6877 55 62.3217 45.2988 62.3217 33.3976V21.947C62.335 21.8277 62.335 21.7217 62.335 21.6024ZM56.8868 27.553C56.6609 27.7783 56.3818 28.0036 56.0363 28.2289C55.9167 28.2819 55.8636 28.3482 55.7573 28.4012C55.5845 28.5205 55.4118 28.6265 55.2523 28.6795C54.8005 28.9048 54.2823 29.1301 53.7773 29.3554C53.0465 29.5807 52.196 29.753 51.2791 29.753C50.3091 29.753 49.5251 29.6337 48.9537 29.5277C48.3291 29.3554 47.8773 29.0241 47.5983 28.5602C47.3192 28.0964 47.1996 27.4867 47.1996 26.6386V21.9337C47.1996 15.8639 45.6183 11.3843 36.8879 11.3843V8.68072C36.2501 10.8277 31.0942 14.1807 31.0942 14.1807C31.0942 14.1807 36.3032 17.5205 36.8746 19.6807V16.9639C39.9309 16.9639 41.7514 17.5337 41.7514 22.0663V27.2217C41.7514 28.4145 41.9242 29.4349 42.3228 30.2301C42.7215 31.0253 43.2264 31.6482 43.9706 32.0988C44.6483 32.5494 45.4456 32.894 46.3492 33.1193C47.2528 33.3446 48.1697 33.4639 49.1796 33.4639C50.1895 33.4639 51.1064 33.3446 51.9037 33.1193C52.0233 33.0663 52.1296 33.0663 52.2492 33C52.9269 32.7747 53.5514 32.4831 54.0697 32.2048C54.6942 31.8072 55.2656 31.4096 55.651 30.959C55.9965 30.6145 56.2224 30.2831 56.4483 29.9916C56.5014 29.8723 56.621 29.7663 56.6742 29.647C56.7273 29.5277 56.7938 29.4217 56.8469 29.3024V33.5036C56.8469 42.4096 49.5915 49.659 40.6884 49.659C31.7719 49.6723 24.5165 42.4096 24.5165 33.5169C24.5165 33.3976 24.5165 33.2916 24.5165 33.1723V33.1193V26.9964C24.7424 26.8771 24.9683 26.7711 25.3138 26.6518C25.4334 26.5988 25.4866 26.5988 25.5929 26.5325C25.7656 26.4795 25.9915 26.4133 26.2174 26.3602C26.6161 26.241 27.0147 26.188 27.4134 26.0819C28.0911 25.9627 28.7688 25.8566 29.5129 25.8566C30.762 25.8566 31.7188 25.9759 32.4098 26.2012C33.0875 26.4265 33.6057 26.7711 33.8848 27.2217C34.1638 27.6723 34.2834 28.2422 34.2834 28.9181V33.053C34.2834 39.1229 35.8647 43.6024 44.5951 43.6024V46.3193C45.2197 44.159 50.3755 40.8193 50.3755 40.8193C50.3755 40.8193 45.1665 37.5325 44.5951 35.4386V38.2217C41.5388 38.2217 39.7183 37.6518 39.7183 33.1193V26.6518C39.7183 25.6843 39.4924 24.8892 39.1469 24.2133C38.7483 23.5373 38.2433 23.0735 37.5656 22.6759C36.9411 22.2783 36.1438 22 35.3598 21.8277C34.5093 21.6554 33.6589 21.6024 32.7553 21.6024C31.3999 21.6024 30.2039 21.7747 29.1807 22.1193C29.1276 22.1325 29.0877 22.1458 29.0611 22.159C28.0379 22.5036 27.1875 22.9675 26.5098 23.4843C25.8321 24.0012 25.3138 24.4518 24.9285 24.9554C24.8089 25.1277 24.7026 25.3 24.583 25.406V21.6687C24.583 20.7012 24.7026 19.747 24.862 18.8325C26.2174 11.2783 32.7951 5.5 40.7814 5.5C48.7145 5.5 55.239 11.2783 56.5944 18.8193C56.7672 19.7205 56.8735 20.688 56.8735 21.6554L56.8868 27.553Z" fill="url(#paint0_radial_1610_18498)"/><path d="M16.5041 27.5397C16.1054 26.9726 15.4277 26.5241 14.4709 26.1812C13.5275 25.8383 12.2252 25.6141 10.5775 25.5217L7.49459 25.3107C6.8036 25.258 6.33851 25.1788 6.08604 25.0469C5.84685 24.9018 5.72725 24.704 5.72725 24.427C5.72725 24.0973 5.92658 23.8335 6.32522 23.6489C6.72387 23.4642 7.32185 23.3587 8.11914 23.3587C8.77027 23.3587 9.31509 23.4246 9.74032 23.5697C10.1655 23.7016 10.511 23.8731 10.7635 24.1105C11.016 24.3347 11.1887 24.5985 11.2685 24.8887H16.823C16.7167 23.939 16.2782 23.1081 15.534 22.3959C14.8032 21.6705 13.8198 21.1033 12.5973 20.7076C11.3748 20.3119 9.96622 20.1141 8.38491 20.1141C6.77703 20.1141 5.36847 20.2856 4.17252 20.6417C2.97658 20.9714 2.0464 21.4858 1.36869 22.1848C0.704279 22.8839 0.358784 23.7544 0.358784 24.7963C0.358784 25.5877 0.571396 26.2735 1.00991 26.8671C1.43514 27.4342 2.1527 27.8958 3.13604 28.2388C4.11937 28.5817 5.46149 28.8191 7.13581 28.9246L9.46126 29.0961C10.3117 29.162 10.9097 29.2675 11.2552 29.3994C11.6273 29.5313 11.8 29.7423 11.8 30.0457C11.8 30.3886 11.5741 30.6656 11.109 30.8503C10.6572 31.0217 10.0061 31.114 9.14234 31.114C8.43806 31.114 7.84009 31.0481 7.34842 30.9294C6.87004 30.7975 6.48468 30.626 6.17905 30.3886C5.87342 30.1512 5.6741 29.8611 5.5545 29.5313H0C0.0531532 30.5337 0.438514 31.4042 1.16937 32.1692C1.91351 32.9342 2.95 33.5145 4.25225 33.9234C5.58108 34.3323 7.10923 34.5433 8.85 34.5433C10.5376 34.5433 11.9993 34.3586 13.2218 34.0025C14.4709 33.6332 15.4277 33.0924 16.0921 32.367C16.7831 31.6284 17.1153 30.7052 17.1153 29.6105C17.1286 28.8059 16.916 28.1069 16.5041 27.5397Z" fill="black"/><path d="M73.0726 20.2328C73.4447 19.8899 74.1357 19.7052 75.1722 19.7052C75.7303 19.7052 76.2618 19.7448 76.7535 19.8239C77.2451 19.9031 77.7368 20.0086 78.2418 20.1537V16.21C77.5906 16.0386 76.9794 15.9067 76.3947 15.8275C75.8366 15.7352 75.212 15.6825 74.5343 15.6825C72.9264 15.6825 71.5578 15.9331 70.4415 16.4211C69.3253 16.8959 68.4749 17.6081 67.9035 18.5577C67.3454 19.481 67.053 20.6021 67.0397 21.9474H64.2891V25.9306H67.0397V34.3586H72.5145V25.9306H77.8697V21.9474H72.5145V21.776C72.5145 21.0769 72.7005 20.5625 73.0726 20.2328Z" fill="black"/><path d="M88.926 15.6561C87.358 15.6561 86.0424 15.9067 84.9528 16.3947C83.8897 16.8695 83.0659 17.5686 82.5078 18.505C81.9497 19.4283 81.6839 20.5625 81.6706 21.921H78.9199V25.9042H81.6706V34.3322H87.1454V25.9042H91.876V21.921H87.1454V21.5122C87.1454 20.8659 87.3314 20.3911 87.6902 20.1141C88.0623 19.8107 88.6868 19.6657 89.5771 19.6657C90.0422 19.6657 90.4807 19.7052 90.8927 19.7844C91.3046 19.8635 91.7165 19.969 92.1152 20.1141V16.1705C91.5837 15.999 91.0654 15.8671 90.5605 15.788C90.0821 15.6957 89.5373 15.6561 88.926 15.6561Z" fill="black"/><path d="M99.5832 16.0518H94.1084V34.3323H99.5832V16.0518Z" fill="black"/><path d="M111.835 30.9822C110.745 30.9822 109.841 30.8371 109.111 30.5601C108.38 30.2567 107.822 29.8347 107.463 29.2807C107.357 29.1225 107.277 28.9378 107.197 28.7532H117.987C117.987 27.0385 117.668 25.5613 117.03 24.2952C116.406 23.029 115.502 22.053 114.333 21.3803C113.15 20.6813 111.728 20.3383 110.054 20.3383C108.46 20.3383 107.011 20.6417 105.722 21.2352C104.446 21.8156 103.437 22.6465 102.679 23.728C101.948 24.8095 101.576 26.0493 101.576 27.4738C101.576 28.9246 101.962 30.204 102.719 31.2987C103.49 32.3934 104.526 33.2375 105.855 33.8443C107.184 34.451 108.685 34.7411 110.373 34.7411C111.675 34.7411 112.978 34.5565 114.253 34.2004C115.529 33.8179 116.658 33.2771 117.628 32.5913V29.4126C116.805 29.9402 115.888 30.3359 114.878 30.5997C113.894 30.8503 112.871 30.9822 111.835 30.9822ZM108.366 24.3215C108.845 24.0314 109.416 23.8995 110.094 23.8995C110.705 23.8995 111.223 24.0182 111.649 24.2556C112.101 24.493 112.446 24.8359 112.698 25.2975C112.845 25.5218 112.951 25.7856 113.044 26.0757H107.091C107.144 25.8779 107.21 25.6932 107.303 25.5086C107.556 24.9942 107.915 24.5985 108.366 24.3215Z" fill="black"/></g><defs><radialGradient id="paint0_radial_1610_18498" cx="0" cy="0" r="1" gradientUnits="userSpaceOnUse" gradientTransform="translate(19.0648 10.8027) rotate(45.6148) scale(61.8466 99.6658)"><stop stop-color="#E32900"/><stop offset="0.6017" stop-color="#C6E216"/><stop offset="1" stop-color="#D808FA"/></radialGradient><clipPath id="clip0_1610_18498"><rect width="118" height="55" fill="white"/></clipPath></defs></svg>