<svg width="118" height="55" fill="none" xmlns="http://www.w3.org/2000/svg"><g clip-path="url(#clip0_1610_17479)"><path d="M62.2166 21.5836C62.2166 9.71103 52.5427 0.0332031 40.663 0.0332031C28.7832 0.0332031 19.1094 9.71103 19.1094 21.5836V33.0066C19.1094 33.1256 19.1094 33.2313 19.1094 33.3503C19.1094 45.289 28.7301 54.9007 40.663 54.9007C52.5959 54.9007 62.2166 45.2228 62.2166 33.3503V21.9273C62.2166 21.8083 62.2166 21.7025 62.2166 21.5836ZM56.7817 27.5198C56.5558 27.7446 56.2767 27.9693 55.9312 28.1941C55.8116 28.247 55.7585 28.3131 55.6522 28.366C55.4794 28.485 55.3067 28.5907 55.1472 28.6436C54.6954 28.8684 54.1905 29.0931 53.6722 29.3179C52.9414 29.5426 52.0909 29.7145 51.1873 29.7145C50.2305 29.7145 49.4332 29.5955 48.8619 29.4898C48.2373 29.3179 47.7855 28.9874 47.5064 28.5246C47.2274 28.0751 47.1078 27.4537 47.1078 26.6076V21.9141C47.1078 15.8588 45.5265 11.3901 36.8094 11.3901V8.69301C36.1848 10.848 31.0423 14.1798 31.0423 14.1798C31.0423 14.1798 36.2513 17.5115 36.8094 19.6665V16.9562C39.8657 16.9562 41.6729 17.5247 41.6729 22.0463V27.1893C41.6729 28.3792 41.8456 29.3972 42.2443 30.1905C42.6429 30.9837 43.1479 31.6051 43.8787 32.0547C44.5564 32.5042 45.3537 32.8479 46.2573 33.0727C47.161 33.2974 48.0646 33.4164 49.0878 33.4164C50.111 33.4164 51.0146 33.2974 51.7986 33.0727C51.9182 33.0198 52.0245 33.0198 52.1441 32.9537C52.8218 32.7289 53.4463 32.4381 53.9513 32.1604C54.5758 31.7638 55.1339 31.3672 55.5326 30.9176C55.8781 30.5739 56.104 30.2434 56.3299 29.9525C56.383 29.8335 56.5026 29.7277 56.5558 29.6088C56.6089 29.4898 56.6754 29.384 56.7285 29.265V33.4561C56.7285 42.3407 49.4864 49.5726 40.6098 49.5726C31.7333 49.5726 24.4911 42.3274 24.4911 33.4561C24.4911 33.3371 24.4911 33.2313 24.4911 33.1123V26.9513C24.717 26.8323 24.9429 26.7266 25.2884 26.6076C25.408 26.5547 25.4612 26.5547 25.5675 26.4886C25.7402 26.4357 25.9661 26.3696 26.192 26.3167C26.5907 26.1977 26.9893 26.1448 27.3747 26.0391C28.0524 25.9201 28.7301 25.8143 29.461 25.8143C30.7101 25.8143 31.6668 25.9333 32.3445 26.1581C33.0222 26.3828 33.5272 26.7266 33.8195 27.1761C34.0986 27.6256 34.2182 28.1941 34.2182 28.8684V32.9934C34.2182 39.0486 35.7995 43.5173 44.5166 43.5173V46.2409C45.1411 44.0858 50.2837 40.7541 50.2837 40.7541C50.2837 40.7541 45.0747 37.4753 44.5166 35.3864V38.1628C41.4603 38.1628 39.6531 37.5943 39.6531 33.0727V26.6208C39.6531 25.6557 39.4272 24.8624 39.0817 24.1881C38.683 23.5138 38.1781 23.0511 37.5004 22.6545C36.8758 22.2578 36.0918 21.9802 35.2945 21.8083C34.4441 21.6364 33.5936 21.5836 32.69 21.5836C31.3346 21.5836 30.1387 21.7554 29.1287 22.0992C29.0756 22.0992 29.0091 22.0992 29.0091 22.1521C27.986 22.4958 27.1488 22.9453 26.4578 23.4477C25.7801 23.9634 25.2751 24.4129 24.8765 24.9153C24.7569 25.0871 24.6506 25.259 24.531 25.3648V21.6364C24.531 20.6713 24.6506 19.7194 24.8101 18.8071C26.1787 11.2843 32.7432 5.51995 40.7161 5.51995C48.636 5.51995 55.2535 11.2843 56.6089 18.8071C56.7817 19.7062 56.888 20.6713 56.888 21.6364V27.5198H56.7817Z" fill="white"/><path d="M16.5041 27.4071C16.1054 26.8399 15.4277 26.3915 14.4709 26.0486C13.5275 25.7056 12.2252 25.4814 10.5775 25.3891L7.49459 25.1781C6.8036 25.1253 6.33851 25.0462 6.08604 24.9143C5.84685 24.7692 5.72725 24.5713 5.72725 24.2944C5.72725 23.9646 5.92658 23.7008 6.32522 23.5162C6.72387 23.3315 7.32185 23.226 8.11914 23.226C8.77027 23.226 9.31509 23.292 9.74032 23.4371C10.1655 23.569 10.511 23.7404 10.7635 23.9778C11.016 24.202 11.1887 24.4658 11.2685 24.756H16.823C16.7167 23.8064 16.2782 22.9754 15.534 22.2632C14.8032 21.5378 13.8198 20.9706 12.5973 20.575C11.3748 20.1793 9.96622 19.9814 8.38491 19.9814C6.77703 19.9814 5.36847 20.1529 4.17252 20.509C2.97658 20.8388 2.0464 21.3531 1.36869 22.0522C0.704279 22.7512 0.358784 23.6217 0.358784 24.6637C0.358784 25.455 0.571396 26.1409 1.00991 26.7344C1.43514 27.3015 2.1527 27.7632 3.13604 28.1061C4.11937 28.449 5.46149 28.6864 7.13581 28.7919L9.46126 28.9634C10.3117 29.0294 10.9097 29.1349 11.2552 29.2668C11.6273 29.3987 11.8 29.6097 11.8 29.913C11.8 30.256 11.5741 30.5329 11.109 30.7176C10.6572 30.8891 10.0061 30.9814 9.14234 30.9814C8.43806 30.9814 7.84009 30.9154 7.34842 30.7967C6.87004 30.6648 6.48468 30.4934 6.17905 30.256C5.87342 30.0186 5.6741 29.7284 5.5545 29.3987H0C0.0531532 30.401 0.438514 31.2715 1.16937 32.0365C1.91351 32.8015 2.95 33.3819 4.25225 33.7907C5.58108 34.1996 7.10923 34.4106 8.85 34.4106C10.5376 34.4106 11.9993 34.226 13.2218 33.8699C14.4709 33.5006 15.4277 32.9598 16.0921 32.2344C16.7831 31.4958 17.1153 30.5725 17.1153 29.4778C17.1286 28.6732 16.916 27.9742 16.5041 27.4071Z" fill="white"/><path d="M72.9935 20.1001C73.3656 19.7572 74.0566 19.5726 75.0931 19.5726C75.6512 19.5726 76.1827 19.6121 76.6744 19.6913C77.166 19.7704 77.6577 19.8759 78.1627 20.021V16.0774C77.5115 15.9059 76.9003 15.774 76.3156 15.6949C75.7575 15.6026 75.1329 15.5498 74.4552 15.5498C72.8473 15.5498 71.4787 15.8004 70.3624 16.2884C69.2462 16.7632 68.3958 17.4755 67.8244 18.4251C67.2663 19.3483 66.9739 20.4694 66.9606 21.8148H64.21V25.7979H66.9606V34.226H72.4354V25.7979H77.7906V21.8148H72.4354V21.6433C72.4354 20.9443 72.6214 20.4299 72.9935 20.1001Z" fill="white"/><path d="M88.8332 15.5234C87.2652 15.5234 85.9497 15.774 84.86 16.262C83.797 16.7369 82.9731 17.4359 82.415 18.3723C81.8569 19.2956 81.5911 20.4299 81.5778 21.7884H78.8271V25.7716H81.5778V34.1996H87.0526V25.7716H91.7832V21.7884H87.0526V21.3795C87.0526 20.7332 87.2386 20.2584 87.5974 19.9814C87.9695 19.6781 88.594 19.533 89.4844 19.533C89.9494 19.533 90.388 19.5726 90.7999 19.6517C91.2118 19.7308 91.6238 19.8364 92.0224 19.9814V16.0378C91.4909 15.8664 90.9726 15.7345 90.4677 15.6553C89.9893 15.563 89.4445 15.5234 88.8332 15.5234Z" fill="white"/><path d="M99.4904 15.9199H94.0156V34.2004H99.4904V15.9199Z" fill="white"/><path d="M111.742 30.8499C110.652 30.8499 109.749 30.7048 109.018 30.4278C108.287 30.1245 107.729 29.7024 107.37 29.1484C107.264 28.9902 107.184 28.8055 107.104 28.6209H117.894C117.894 26.9063 117.576 25.429 116.938 24.1629C116.313 22.8967 115.41 21.9207 114.24 21.248C113.057 20.549 111.636 20.2061 109.961 20.2061C108.367 20.2061 106.918 20.5094 105.629 21.1029C104.354 21.6833 103.344 22.5142 102.586 23.5957C101.855 24.6773 101.483 25.9171 101.483 27.3415C101.483 28.7923 101.869 30.0717 102.626 31.1664C103.397 32.2611 104.433 33.1053 105.762 33.712C107.091 34.3187 108.593 34.6088 110.28 34.6088C111.582 34.6088 112.885 34.4242 114.16 34.0681C115.436 33.6856 116.566 33.1448 117.536 32.459V29.2803C116.712 29.8079 115.795 30.2036 114.785 30.4674C113.802 30.718 112.778 30.8499 111.742 30.8499ZM108.274 24.1892C108.752 23.8991 109.323 23.7672 110.001 23.7672C110.612 23.7672 111.131 23.8859 111.556 24.1233C112.008 24.3607 112.353 24.7036 112.606 25.1653C112.752 25.3895 112.858 25.6533 112.951 25.9434H106.998C107.051 25.7456 107.118 25.5609 107.211 25.3763C107.463 24.8619 107.822 24.4662 108.274 24.1892Z" fill="white"/></g><defs><clipPath id="clip0_1610_17479"><rect width="118" height="55" fill="white"/></clipPath></defs></svg>