<svg width="1440" height="1242" fill="none" xmlns="http://www.w3.org/2000/svg"><mask id="mask0_1610_18692" style="mask-type:alpha" maskUnits="userSpaceOnUse" x="-907" y="0" width="2348" height="2369"><rect x="-906.189" width="2346.19" height="2369" fill="url(#paint0_linear_1610_18692)"/></mask><g mask="url(#mask0_1610_18692)"><g opacity="0.5"><path d="M1440 286.69C657.998 286.69 -124.004 286.69 -906.006 286.69C-905.148 1047.2 -905.148 1807.72 -906.006 2568.23C-124.028 2569.02 657.974 2569.02 1440 2568.23V286.69Z" stroke="url(#paint1_diamond_1610_18692)" stroke-width="2" stroke-miterlimit="10"/><path d="M1440 1699.03H1102.56C1051.49 1699.03 994.902 1706.35 945.667 1692.41C873.762 1672.05 822.066 1605.44 776.652 1551.48C697.619 1457.94 584.232 1242.07 449.277 1219.17C328.908 1198.84 192.484 1365.49 116.684 1433.78C13.5479 1526.69 -77.0957 1619.59 -214.77 1651.5C-312.137 1674.12 -385.99 1722.14 -472.261 1768.81C-549.861 1810.76 -642.342 1847.42 -726.188 1797.93C-793.794 1758.38 -819.698 1711.07 -906.006 1699.03" stroke="url(#paint2_diamond_1610_18692)" stroke-width="2" stroke-miterlimit="10"/><path d="M1440 1590.43H1102.56C1051.12 1590.43 995.453 1597.29 946.145 1582.61C876.886 1561.99 823.205 1498.71 776.395 1448.39C694.312 1360.1 575.744 1161.14 445.713 1137.8C331.811 1117.44 189.765 1276.27 114.259 1338.48C10.7923 1423.7 -83.5623 1511.11 -216.203 1543.19C-314.378 1566.99 -390.876 1612.41 -479.426 1658.04C-555.629 1697.35 -653.622 1737.15 -735.153 1686.63C-800.812 1645.96 -818.632 1601.44 -905.969 1590.47" stroke="url(#paint3_diamond_1610_18692)" stroke-width="2" stroke-miterlimit="10"/><path d="M1440 1481.78H1102.56C964.406 1481.78 893.567 1470.16 782.898 1380.44C694.9 1308.97 586.363 1174.44 466.289 1158.15C356.282 1143.24 226.544 1247.48 139.281 1298.61C34.0869 1360.68 -64.6032 1422.85 -186.845 1441.76C-288.071 1457.44 -381.581 1485.57 -479.646 1513.44C-561.913 1536.77 -662.22 1564.64 -746.286 1533.27C-804.744 1511.47 -838.142 1486.6 -906.006 1481.78" stroke="url(#paint4_diamond_1610_18692)" stroke-width="2" stroke-miterlimit="10"/><path d="M1440 1373.15C1233.36 1373.15 983.696 1412.45 791.717 1326.7C695.231 1283.57 601.685 1222.89 492.964 1215.92C384.243 1208.96 274.566 1249.37 172.239 1279.28C65.6855 1310.4 -37.1933 1341.2 -149.037 1341.99C-259.485 1342.74 -369.125 1351.96 -479.205 1359.11C-621.031 1368.32 -763.886 1369.22 -906.042 1372.97" stroke="url(#paint5_diamond_1610_18692)" stroke-width="2" stroke-miterlimit="10"/><path d="M1440 1264.49C1228.73 1264.49 1008.2 1282.18 798.22 1258.84C596.688 1236.47 400.556 1232.04 197.481 1239.51C-30.1388 1247.91 -252.614 1232.08 -479.426 1214.68C-561.912 1208.35 -693.23 1178.05 -771.455 1214.68C-822.196 1238.4 -842.515 1259.09 -906.042 1264.45" stroke="url(#paint6_diamond_1610_18692)" stroke-width="2" stroke-miterlimit="10"/><path d="M1440 1155.89C1028.3 1155.89 615.61 1164.43 204.315 1145.42C-26.1707 1134.7 -249.859 1123.98 -478.728 1093.68C-554.638 1083.67 -701.534 1048.4 -772.667 1090.57C-788.687 1100.07 -792.471 1115.01 -806.25 1125.59C-839.869 1151.28 -861.915 1153.89 -906.006 1155.89" stroke="url(#paint7_diamond_1610_18692)" stroke-width="2" stroke-miterlimit="10"/><path d="M1440 1047.19C1033.26 1047.19 625.751 1054.33 219.269 1039.26C119.587 1035.5 19.6839 1035.29 -79.8882 1031.36C-208.781 1026.28 -334.991 986.764 -460.099 959.392C-537.589 942.419 -689.556 895.502 -761.387 950.138C-821.094 995.375 -814.149 1040.29 -906.006 1047.26" stroke="url(#paint8_diamond_1610_18692)" stroke-width="2" stroke-miterlimit="10"/><path d="M1440 938.57C1040.61 938.57 640.815 943.68 241.535 934.318C149.679 932.174 55.7649 936.855 -35.6503 929.28C-171.34 918.095 -304.054 855.741 -432.028 813.898C-516.536 786.277 -668.245 721.422 -745.772 796.032C-808.602 856.456 -802.208 922.884 -906.189 938.606" stroke="url(#paint9_diamond_1610_18692)" stroke-width="2" stroke-miterlimit="10"/><path d="M1440 829.897C1046.86 829.897 653.712 832.077 260.567 828.861C176.06 828.182 86.6653 836.008 2.41484 826.503C-139.448 810.566 -278.334 726.987 -407.815 673.066C-499.671 634.903 -648 556.541 -731.81 647.481C-797.946 719.197 -792.472 806.564 -906.189 829.719" stroke="url(#paint10_diamond_1610_18692)" stroke-width="2" stroke-miterlimit="10"/><path d="M1440 721.271H266.998C184.511 721.271 97.1372 729.382 15.0178 720.128C-129.049 703.905 -269.479 612.322 -398.996 554.256C-492.8 512.198 -638.631 431.62 -724.902 526.205C-792.471 600.315 -790.267 697.044 -906.042 721.235" stroke="url(#paint11_diamond_1610_18692)" stroke-width="2" stroke-miterlimit="10"/><path d="M1440 612.754H266.998C184.143 612.754 97.3944 620.115 14.8341 611.432C-119.202 597.353 -249.05 525.959 -372.872 478.327C-472.959 439.843 -597.442 381.848 -694.222 455.994C-771.381 515.096 -799.893 592.529 -906.079 612.683" stroke="url(#paint12_diamond_1610_18692)" stroke-width="2" stroke-miterlimit="10"/><path d="M1440 503.98H266.997C183.592 503.98 98.9742 508.125 15.679 503.658C-101.897 497.369 -215.798 454.597 -328.635 424.724C-432.395 397.282 -538.581 372.876 -642.819 411.325C-734.676 445.092 -804.486 495.94 -906.006 503.98" stroke="url(#paint13_diamond_1610_18692)" stroke-width="2" stroke-miterlimit="10"/><path d="M1440 395.323H266.997C80.0516 395.323 -100.427 389.999 -286.124 369.167C-387.607 357.768 -491.882 353.337 -593.438 364.343C-698.411 375.706 -799.636 396.502 -905.932 395.43" stroke="url(#paint14_diamond_1610_18692)" stroke-width="2" stroke-miterlimit="10"/><path d="M-12.2511 286.759C-10.4875 393.958 -15.4477 501.156 -17.4318 608.355C-19.3791 712.266 -17.4317 799.74 -56.3053 897.791C-90.6962 985.086 -132.179 1066.7 -143.422 1160.78C-152.519 1239.88 -170.521 1317.77 -197.102 1393.05C-222.198 1464.76 -259.565 1549.13 -248.983 1626.81C-233.183 1743.77 -109.802 1839.64 -37.7136 1926.11C49.1088 2030.27 65.8267 2105.56 43.1198 2235.06C23.6831 2346.51 -6.37226 2454.56 -12.4348 2567.98" stroke="url(#paint15_diamond_1610_18692)" stroke-width="2" stroke-miterlimit="10"/><path d="M99.416 286.69C99.416 485.329 133.366 714.448 61.5712 903.654C28.8704 989.77 -10.5911 1070.74 -21.2464 1163.18C-30.285 1241.79 -43.6224 1306.11 -76.1763 1380.26C-105.57 1447.04 -139.814 1522.94 -129.269 1597.69C-112.625 1715.61 11.4544 1816.06 83.139 1905C168.382 2010.66 188.774 2086.09 163.972 2216.48C141.413 2334.4 103.972 2447.89 99.4894 2568.48" stroke="url(#paint16_diamond_1610_18692)" stroke-width="2" stroke-miterlimit="10"/><path d="M210.969 286.69C210.969 488.902 236.394 708.338 183.963 905.44C160.558 993.379 132.707 1077.82 124.697 1168.9C119.076 1232.32 112.315 1271.67 74.4335 1324.94C-52.6587 1503.61 124.477 1647.93 235.476 1785.9C328.691 1901.74 338.355 1978.64 307.05 2120.14C273.982 2269.54 221.073 2415.08 210.932 2568.41" stroke="url(#paint17_diamond_1610_18692)" stroke-width="2" stroke-miterlimit="10"/><path d="M322.851 286.69C322.851 492.154 337.915 703.764 310.506 907.906C298.454 997.667 285.264 1085.75 281.112 1176.3C280.707 1185.26 285.08 1237.83 271.081 1247.76C257.633 1257.37 247.933 1247.76 237.241 1252.98C226.549 1258.2 217.033 1247.65 203.438 1258.2C188.484 1269.81 192.195 1313.33 194.289 1329.84C208.986 1445.22 331.008 1544.24 400.635 1631.14C503.844 1759.78 497.451 1841.75 459.423 1997.72C413.091 2187.46 343.537 2373.35 323.108 2568.06" stroke="url(#paint18_diamond_1610_18692)" stroke-width="2" stroke-miterlimit="10"/><path d="M434.583 286.69C434.583 467.213 437.119 647.914 434.988 828.436C434.032 907.978 429.697 987.447 427.639 1066.95C426.647 1110.05 445.68 1203.74 418.233 1237.9C389.464 1218.21 385.936 1177.15 357.204 1157.57C275.488 1279.06 565.35 1507.75 615.466 1601.52C679.545 1721.29 609.33 1878.73 576.042 1999.01C524.051 2187 458.172 2374.2 434.436 2568.06" stroke="url(#paint19_diamond_1610_18692)" stroke-width="2" stroke-miterlimit="10"/><path d="M546.277 286.689V1068.1C546.277 1110.37 564.832 1204.99 536.945 1238.15C509.829 1213.14 507.551 1171.44 480.398 1146.46C400.189 1259.34 681.93 1498.61 728.851 1587.58C793.26 1709.86 723.376 1866.3 689.72 1989.15C637.362 2180.46 571.262 2371.09 546.424 2568.02" stroke="url(#paint20_diamond_1610_18692)" stroke-width="2" stroke-miterlimit="10"/><path d="M658.011 286.69V909.943C658.011 1000.95 660.325 1092.18 658.011 1183.3C658.011 1183.48 660.729 1246.26 650.662 1251.19C647.172 1252.84 626.008 1251.37 629.278 1248.48C631.115 1246.83 613.258 1242.58 607.931 1245.8C595.438 1253.34 600.582 1301.25 602.052 1313.69C613.993 1420.03 697.582 1515.4 750.712 1605.09C829.304 1737.52 819.898 1825.67 787.013 1974.1C743.253 2171.81 679.542 2366.49 658.011 2568.13" stroke="url(#paint21_diamond_1610_18692)" stroke-width="2" stroke-miterlimit="10"/><path d="M769.713 286.69V909.943C769.713 1049.69 783.602 1194.7 754.428 1331.95C721.066 1489.17 769.529 1615.6 820.565 1763.82C910.914 2026.2 781.618 2302.1 769.676 2568.27" stroke="url(#paint22_diamond_1610_18692)" stroke-width="2" stroke-miterlimit="10"/><path d="M881.441 286.69C881.441 658.598 892.463 1032.4 877.766 1404.09C871.364 1569.85 877.295 1735.85 895.513 1900.78C919.579 2123.93 877.73 2345.3 881.404 2568.38" stroke="url(#paint23_diamond_1610_18692)" stroke-width="2" stroke-miterlimit="10"/><path d="M993.136 286.69V2568.23" stroke="url(#paint24_diamond_1610_18692)" stroke-width="2" stroke-miterlimit="10"/><path d="M1104.87 286.69V2568.23" stroke="url(#paint25_diamond_1610_18692)" stroke-width="2" stroke-miterlimit="10"/><path d="M1216.58 286.69V2568.23" stroke="url(#paint26_diamond_1610_18692)" stroke-width="2" stroke-miterlimit="10"/><path d="M1328.31 286.69V2568.23" stroke="url(#paint27_diamond_1610_18692)" stroke-width="2" stroke-miterlimit="10"/></g></g><defs><linearGradient id="paint0_linear_1610_18692" x1="-841.018" y1="1820.74" x2="1787.86" y2="461.906" gradientUnits="userSpaceOnUse"><stop stop-color="#D9D9D9" stop-opacity="0.43"/><stop offset="1" stop-color="#D9D9D9" stop-opacity="0"/></linearGradient><radialGradient id="paint1_diamond_1610_18692" cx="0" cy="0" r="1" gradientUnits="userSpaceOnUse" gradientTransform="translate(1267.45 659.01) rotate(138.694) scale(2893.32 8289.7)"><stop stop-color="#E32900"/><stop offset="0.472959" stop-color="#C6E216"/><stop offset="1" stop-color="#D808FA"/></radialGradient><radialGradient id="paint2_diamond_1610_18692" cx="0" cy="0" r="1" gradientUnits="userSpaceOnUse" gradientTransform="translate(1267.45 1316.04) rotate(166.903) scale(2231.51 2845.87)"><stop stop-color="#E32900"/><stop offset="0.472959" stop-color="#C6E216"/><stop offset="1" stop-color="#D808FA"/></radialGradient><radialGradient id="paint3_diamond_1610_18692" cx="0" cy="0" r="1" gradientUnits="userSpaceOnUse" gradientTransform="translate(1267.45 1229.72) rotate(167.529) scale(2225.94 2711.95)"><stop stop-color="#E32900"/><stop offset="0.472959" stop-color="#C6E216"/><stop offset="1" stop-color="#D808FA"/></radialGradient><radialGradient id="paint4_diamond_1610_18692" cx="0" cy="0" r="1" gradientUnits="userSpaceOnUse" gradientTransform="translate(1267.45 1220.42) rotate(171.448) scale(2197.9 1867.63)"><stop stop-color="#E32900"/><stop offset="0.472959" stop-color="#C6E216"/><stop offset="1" stop-color="#D808FA"/></radialGradient><radialGradient id="paint5_diamond_1610_18692" cx="0" cy="0" r="1" gradientUnits="userSpaceOnUse" gradientTransform="translate(1267.45 1242.38) rotate(176.321) scale(2177.98 805.908)"><stop stop-color="#E32900"/><stop offset="0.472959" stop-color="#C6E216"/><stop offset="1" stop-color="#D808FA"/></radialGradient><radialGradient id="paint6_diamond_1610_18692" cx="0" cy="0" r="1" gradientUnits="userSpaceOnUse" gradientTransform="translate(1267.45 1208.97) rotate(178.368) scale(2174.37 357.735)"><stop stop-color="#E32900"/><stop offset="0.472959" stop-color="#C6E216"/><stop offset="1" stop-color="#D808FA"/></radialGradient><radialGradient id="paint7_diamond_1610_18692" cx="0" cy="0" r="1" gradientUnits="userSpaceOnUse" gradientTransform="translate(1267.45 1084.61) rotate(178.071) scale(2174.69 422.662)"><stop stop-color="#E32900"/><stop offset="0.472959" stop-color="#C6E216"/><stop offset="1" stop-color="#D808FA"/></radialGradient><radialGradient id="paint8_diamond_1610_18692" cx="0" cy="0" r="1" gradientUnits="userSpaceOnUse" gradientTransform="translate(1267.45 944.751) rotate(177.257) scale(2175.95 600.989)"><stop stop-color="#E32900"/><stop offset="0.472959" stop-color="#C6E216"/><stop offset="1" stop-color="#D808FA"/></radialGradient><radialGradient id="paint9_diamond_1610_18692" cx="0" cy="0" r="1" gradientUnits="userSpaceOnUse" gradientTransform="translate(1267.44 790.49) rotate(176.066) scale(2178.76 861.644)"><stop stop-color="#E32900"/><stop offset="0.472959" stop-color="#C6E216"/><stop offset="1" stop-color="#D808FA"/></radialGradient><radialGradient id="paint10_diamond_1610_18692" cx="0" cy="0" r="1" gradientUnits="userSpaceOnUse" gradientTransform="translate(1267.44 642.081) rotate(175.026) scale(2181.84 1088.94)"><stop stop-color="#E32900"/><stop offset="0.472959" stop-color="#C6E216"/><stop offset="1" stop-color="#D808FA"/></radialGradient><radialGradient id="paint11_diamond_1610_18692" cx="0" cy="0" r="1" gradientUnits="userSpaceOnUse" gradientTransform="translate(1267.45 521.636) rotate(174.666) scale(2182.94 1167.46)"><stop stop-color="#E32900"/><stop offset="0.472959" stop-color="#C6E216"/><stop offset="1" stop-color="#D808FA"/></radialGradient><radialGradient id="paint12_diamond_1610_18692" cx="0" cy="0" r="1" gradientUnits="userSpaceOnUse" gradientTransform="translate(1267.45 452.089) rotate(175.696) scale(2179.67 942.516)"><stop stop-color="#E32900"/><stop offset="0.472959" stop-color="#C6E216"/><stop offset="1" stop-color="#D808FA"/></radialGradient><radialGradient id="paint13_diamond_1610_18692" cx="0" cy="0" r="1" gradientUnits="userSpaceOnUse" gradientTransform="translate(1267.45 410.078) rotate(177.48) scale(2175.56 552.164)"><stop stop-color="#E32900"/><stop offset="0.472959" stop-color="#C6E216"/><stop offset="1" stop-color="#D808FA"/></radialGradient><radialGradient id="paint14_diamond_1610_18692" cx="0" cy="0" r="1" gradientUnits="userSpaceOnUse" gradientTransform="translate(1267.46 364.116) rotate(179.173) scale(2173.62 181.153)"><stop stop-color="#E32900"/><stop offset="0.472959" stop-color="#C6E216"/><stop offset="1" stop-color="#D808FA"/></radialGradient><radialGradient id="paint15_diamond_1610_18692" cx="0" cy="0" r="1" gradientUnits="userSpaceOnUse" gradientTransform="translate(30.0022 658.93) rotate(98.3684) scale(1929.6 1605.4)"><stop stop-color="#E32900"/><stop offset="0.472959" stop-color="#C6E216"/><stop offset="1" stop-color="#D808FA"/></radialGradient><radialGradient id="paint16_diamond_1610_18692" cx="0" cy="0" r="1" gradientUnits="userSpaceOnUse" gradientTransform="translate(151.372 658.955) rotate(98.4182) scale(1930.33 1615.29)"><stop stop-color="#E32900"/><stop offset="0.472959" stop-color="#C6E216"/><stop offset="1" stop-color="#D808FA"/></radialGradient><radialGradient id="paint17_diamond_1610_18692" cx="0" cy="0" r="1" gradientUnits="userSpaceOnUse" gradientTransform="translate(301.596 658.943) rotate(98.0847) scale(1928.64 1551.69)"><stop stop-color="#E32900"/><stop offset="0.472959" stop-color="#C6E216"/><stop offset="1" stop-color="#D808FA"/></radialGradient><radialGradient id="paint18_diamond_1610_18692" cx="0" cy="0" r="1" gradientUnits="userSpaceOnUse" gradientTransform="translate(463.363 658.885) rotate(98.0809) scale(1928.32 1550.73)"><stop stop-color="#E32900"/><stop offset="0.472959" stop-color="#C6E216"/><stop offset="1" stop-color="#D808FA"/></radialGradient><radialGradient id="paint19_diamond_1610_18692" cx="0" cy="0" r="1" gradientUnits="userSpaceOnUse" gradientTransform="translate(619.54 658.885) rotate(98.2484) scale(1929.13 1582.65)"><stop stop-color="#E32900"/><stop offset="0.472959" stop-color="#C6E216"/><stop offset="1" stop-color="#D808FA"/></radialGradient><radialGradient id="paint20_diamond_1610_18692" cx="0" cy="0" r="1" gradientUnits="userSpaceOnUse" gradientTransform="translate(733.91 658.878) rotate(97.9847) scale(1927.83 1532.36)"><stop stop-color="#E32900"/><stop offset="0.472959" stop-color="#C6E216"/><stop offset="1" stop-color="#D808FA"/></radialGradient><radialGradient id="paint21_diamond_1610_18692" cx="0" cy="0" r="1" gradientUnits="userSpaceOnUse" gradientTransform="translate(795.731 658.896) rotate(95.8608) scale(1919.26 1126.49)"><stop stop-color="#E32900"/><stop offset="0.472959" stop-color="#C6E216"/><stop offset="1" stop-color="#D808FA"/></radialGradient><radialGradient id="paint22_diamond_1610_18692" cx="0" cy="0" r="1" gradientUnits="userSpaceOnUse" gradientTransform="translate(844.406 658.92) rotate(93.0273) scale(1912.02 582.651)"><stop stop-color="#E32900"/><stop offset="0.472959" stop-color="#C6E216"/><stop offset="1" stop-color="#D808FA"/></radialGradient><radialGradient id="paint23_diamond_1610_18692" cx="0" cy="0" r="1" gradientUnits="userSpaceOnUse" gradientTransform="translate(900.976 658.937) rotate(90.7712) scale(1909.61 148.501)"><stop stop-color="#E32900"/><stop offset="0.472959" stop-color="#C6E216"/><stop offset="1" stop-color="#D808FA"/></radialGradient><radialGradient id="paint24_diamond_1610_18692" cx="0" cy="0" r="1" gradientUnits="userSpaceOnUse" gradientTransform="translate(993.062 658.914) rotate(90.0278) scale(1909.32 5.35322)"><stop stop-color="#E32900"/><stop offset="0.472959" stop-color="#C6E216"/><stop offset="1" stop-color="#D808FA"/></radialGradient><radialGradient id="paint25_diamond_1610_18692" cx="0" cy="0" r="1" gradientUnits="userSpaceOnUse" gradientTransform="translate(1104.8 658.914) rotate(90.0278) scale(1909.32 5.35322)"><stop stop-color="#E32900"/><stop offset="0.472959" stop-color="#C6E216"/><stop offset="1" stop-color="#D808FA"/></radialGradient><radialGradient id="paint26_diamond_1610_18692" cx="0" cy="0" r="1" gradientUnits="userSpaceOnUse" gradientTransform="translate(1216.5 658.914) rotate(90.0278) scale(1909.32 5.35322)"><stop stop-color="#E32900"/><stop offset="0.472959" stop-color="#C6E216"/><stop offset="1" stop-color="#D808FA"/></radialGradient><radialGradient id="paint27_diamond_1610_18692" cx="0" cy="0" r="1" gradientUnits="userSpaceOnUse" gradientTransform="translate(1328.23 658.914) rotate(90.0278) scale(1909.32 5.35322)"><stop stop-color="#E32900"/><stop offset="0.472959" stop-color="#C6E216"/><stop offset="1" stop-color="#D808FA"/></radialGradient></defs></svg>